<svg width="13" height="15" viewBox="0 0 13 15" fill="none" xmlns="http://www.w3.org/2000/svg">
<path d="M8.98152 1.28795C7.6779 0.985078 6.32212 0.985082 5.01851 1.28796C4.26557 0.825792 3.69024 0.613713 3.27208 0.524352C3.04474 0.475769 2.86455 0.463634 2.72901 0.467255C2.66137 0.469063 2.6054 0.474781 2.56081 0.481642C2.53854 0.485068 2.51919 0.488768 2.50272 0.492379C2.49449 0.494184 2.48698 0.495965 2.48021 0.497677L2.47059 0.500184L2.46619 0.501387L2.46409 0.501974L2.46206 0.50255C2.46205 0.502551 2.46206 0.502547 2.46206 0.50255C2.46161 0.50276 2.46385 0.508811 2.60858 1.01488L2.46206 0.50255C2.31056 0.545875 2.18598 0.653973 2.12173 0.797847C1.94236 1.19949 1.84439 1.6327 1.83349 2.07244C1.82539 2.39922 1.86549 2.72478 1.95198 3.03875C1.72468 3.31408 1.53947 3.62238 1.403 3.95367C1.22388 4.38851 1.13226 4.85439 1.13337 5.32468C1.13351 6.98073 1.62209 8.0942 2.4547 8.80966C3.03807 9.31095 3.74724 9.57768 4.45732 9.7304C4.34006 10.0562 4.30964 10.4009 4.33337 10.7521V11.3902C3.89886 11.4815 3.59883 11.4527 3.38494 11.3821C3.11615 11.2934 2.91009 11.1149 2.71354 10.8587C2.61399 10.7289 2.52228 10.5864 2.42597 10.4305L2.36483 10.331C2.28941 10.2078 2.20801 10.0749 2.12587 9.95379C1.92234 9.65364 1.62207 9.27856 1.13547 9.15081L0.619622 9.01537L0.348755 10.0471L0.864606 10.1825C0.949347 10.2048 1.0609 10.2838 1.24304 10.5524C1.30996 10.6511 1.3738 10.7553 1.44669 10.8742C1.46958 10.9116 1.49343 10.9505 1.51848 10.9911C1.6186 11.1532 1.73342 11.3335 1.86721 11.5079C2.13732 11.8601 2.50509 12.215 3.05064 12.395C3.42548 12.5187 3.84916 12.5484 4.33337 12.474V14.4667C4.33337 14.7612 4.57215 15 4.86671 15H9.13337C9.42793 15 9.66671 14.7612 9.66671 14.4667V10.6667C9.66671 10.3298 9.65204 10.0218 9.55723 9.73454C10.2637 9.58539 10.9673 9.31843 11.5468 8.81673C12.3792 8.09624 12.8667 6.97274 12.8667 5.30666L12.8667 5.30494C12.864 4.47425 12.5726 3.67409 12.0481 3.03876C12.1346 2.72479 12.1747 2.39922 12.1666 2.07244C12.1557 1.6327 12.0577 1.19949 11.8784 0.797847C11.8141 0.653931 11.6894 0.545813 11.5379 0.502513L11.3914 1.01533C11.5379 0.502513 11.5364 0.502081 11.5359 0.501938L11.5338 0.501352L11.5294 0.500152L11.5198 0.497649C11.513 0.49594 11.5055 0.494162 11.4973 0.492359C11.4808 0.488752 11.4614 0.485056 11.4392 0.481632C11.3946 0.474777 11.3386 0.469062 11.271 0.467255C11.1354 0.463635 10.9552 0.475765 10.7278 0.524347C10.3095 0.613705 9.73419 0.825782 8.98152 1.28795Z" fill="#475569"/>
</svg>
