<svg width="16" height="16" viewBox="0 0 16 16" fill="none" xmlns="http://www.w3.org/2000/svg">
<path d="M0 8C0 3.58172 3.58172 0 8 0C12.4183 0 16 3.58172 16 8C16 12.4183 12.4183 16 8 16C6.89691 16 5.84597 15.7767 4.88989 15.3729L6.92805 10.7143C7.44044 11.3459 8.21959 11.7333 9.06667 11.7333C11.1285 11.7333 12.8 10.0619 12.8 8V7.46667C12.8 5.11025 10.8897 3.2 8.53333 3.2H7.46667C5.11025 3.2 3.2 5.11025 3.2 7.46667V8C3.2 8.95583 3.5599 9.82888 4.15075 10.489L4.94556 9.77765C4.52298 9.30551 4.26667 8.68332 4.26667 8V7.46667C4.26667 5.69936 5.69936 4.26667 7.46667 4.26667H8.53333C10.3006 4.26667 11.7333 5.69936 11.7333 7.46667V8C11.7333 9.47276 10.5394 10.6667 9.06667 10.6667C8.34073 10.6667 7.69623 10.2021 7.46667 9.51345L7.46094 9.49626L8.48869 7.1471L7.51146 6.71956L3.9359 14.8923C1.58009 13.5001 0 10.9346 0 8Z" fill="#475569"/>
</svg>
