<svg width="16" height="14" viewBox="0 0 16 14" fill="none" xmlns="http://www.w3.org/2000/svg">
<path fill-rule="evenodd" clip-rule="evenodd" d="M8.12935 0.0825945C7.97002 0.0427623 7.80123 0.0785571 7.67178 0.179628C7.54233 0.280698 7.46667 0.435772 7.46667 0.600004V4.34952C6.06765 4.43436 4.75304 4.84745 3.68501 5.46281C3.27131 5.09905 2.7135 4.91341 2.15656 4.91341C0.96534 4.91341 0 5.87875 0 7.06997C0 7.86767 0.433137 8.55761 1.07389 8.92849C1.0691 8.99644 1.06667 9.06473 1.06667 9.13333C1.06667 10.4589 1.97589 11.6673 3.22269 12.5145C4.48652 13.3732 6.19122 13.9333 7.99998 13.9333C9.80875 13.9333 11.5135 13.3732 12.7773 12.5145C14.0241 11.6673 14.9333 10.4589 14.9333 9.13333C14.9333 9.06475 14.9309 8.99648 14.9261 8.92855C15.5669 8.55769 16.0001 7.86771 16.0001 7.06998C16.0001 5.87875 15.0348 4.91341 13.8435 4.91341C13.2866 4.91341 12.7288 5.09906 12.315 5.46285C11.247 4.84747 9.93237 4.43437 8.53333 4.34952V1.28308L11.7921 2.09777C11.9803 2.77202 12.599 3.26667 13.3333 3.26667C14.217 3.26667 14.9333 2.55032 14.9333 1.66667C14.9333 0.78301 14.217 0.0666656 13.3333 0.0666656C12.6806 0.0666656 12.1192 0.457471 11.8704 1.01784L8.12935 0.0825945ZM13.3333 2.2C13.0415 2.2 12.8043 1.96554 12.8001 1.67469L12.8 1.66667L12.8001 1.65823C12.8046 1.36757 13.0416 1.13333 13.3333 1.13333C13.6279 1.13333 13.8667 1.37211 13.8667 1.66667C13.8667 1.96122 13.6279 2.2 13.3333 2.2ZM5.33333 8.6H6.4V7.53333H5.33333V8.6ZM8.00004 10.7333C6.94753 10.7333 6.27559 10.5516 5.54045 10.2418L5.1263 11.2248C5.97543 11.5826 6.78782 11.8 8.00004 11.8C9.21226 11.8 10.0247 11.5826 10.8738 11.2248L10.4596 10.2418C9.72449 10.5516 9.05255 10.7333 8.00004 10.7333ZM10.6667 8.6H9.6V7.53333H10.6667V8.6Z" fill="#475569"/>
</svg>
