<svg width="16" height="14" viewBox="0 0 16 14" fill="none" xmlns="http://www.w3.org/2000/svg">
<path d="M15.9758 0.564707C15.9616 0.350765 15.8207 0.166117 15.6181 0.0959892C15.4155 0.0258616 15.1906 0.0838904 15.0472 0.243292C14.6785 0.65306 14.2126 0.930726 13.7397 1.05733C13.0821 0.443332 12.1984 0.0666561 11.2273 0.0666561C9.14326 0.0666561 7.45518 1.75853 7.45518 3.84383V4.31295C4.26452 4.06638 2.55827 1.64262 2.09787 0.412977C2.02345 0.214219 1.83826 0.0785002 1.62632 0.0673877C1.41438 0.0562753 1.21602 0.171884 1.12122 0.36177C0.00471268 2.59824 -0.167315 4.7674 0.644158 6.61451C1.35501 8.23257 2.78459 9.52148 4.81076 10.3754C3.88991 11.028 2.34004 11.8 0.533375 11.8C0.298423 11.8 0.0911464 11.9537 0.0229808 12.1786C-0.0451848 12.4034 0.0418192 12.6464 0.237218 12.7769C1.9696 13.9336 3.78522 13.9334 5.47396 13.9333L5.52565 13.9333C10.7103 13.9333 14.912 9.72402 14.912 4.53331V4.02314C15.2996 3.62914 15.6014 3.22581 15.7864 2.7044C15.9928 2.12259 16.0344 1.44797 15.9758 0.564707Z" fill="#475569"/>
</svg>
