<svg width="16" height="16" viewBox="0 0 16 16" fill="none" xmlns="http://www.w3.org/2000/svg">
<path fill-rule="evenodd" clip-rule="evenodd" d="M0.533333 0C0.238781 0 0 0.238781 0 0.533333V12.2667C0 12.5612 0.238781 12.8 0.533333 12.8H2.66667V15.4667C2.66667 15.6749 2.78792 15.8642 2.97714 15.9512C3.16637 16.0382 3.38895 16.0071 3.54709 15.8716L7.13063 12.8H12.2667C12.4081 12.8 12.5438 12.7438 12.6438 12.6438L15.8438 9.44379C15.9438 9.34377 16 9.20811 16 9.06666V0.533333C16 0.238781 15.7612 0 15.4667 0H0.533333ZM10.6667 8.53333V3.2H11.7333V8.53333H10.6667ZM7.46667 3.2V8.53333H8.53333V3.2H7.46667Z" fill="#475569"/>
</svg>
