<svg width="16" height="14" viewBox="0 0 16 14" fill="none" xmlns="http://www.w3.org/2000/svg">
<path d="M9.17185 7.00001L7.46667 8.1368V5.86322L9.17185 7.00001Z" fill="#475569"/>
<path fill-rule="evenodd" clip-rule="evenodd" d="M1.60651 0.891272C5.821 -0.0118327 10.179 -0.0118327 14.3935 0.891272C15.3305 1.09207 16 1.92018 16 2.87851V11.1215C16 12.0798 15.3305 12.908 14.3935 13.1088C10.179 14.0119 5.821 14.0119 1.60651 13.1088C0.669455 12.908 0 12.0798 0 11.1215V2.87851C0 1.92018 0.669455 1.09207 1.60651 0.891272ZM7.22917 4.42292C7.06552 4.31381 6.85509 4.30364 6.68168 4.39645C6.50826 4.48926 6.4 4.66999 6.4 4.86668V9.13334C6.4 9.33004 6.50826 9.51076 6.68168 9.60357C6.85509 9.69638 7.06552 9.68621 7.22917 9.57711L10.4292 7.44377C10.5775 7.34486 10.6667 7.17833 10.6667 7.00001C10.6667 6.82169 10.5775 6.65517 10.4292 6.55625L7.22917 4.42292Z" fill="#475569"/>
</svg>
